PathFileType	4	(X/Y/Z)	69_1_7_p0_0-123_filt_butterworth.trc
DataRate	CameraRate	NumFrames	NumMarkers	Units	OrigDataRate	OrigDataStartFrame	OrigNumFrames
60.0	60.0	5	27	m	60.0	46	123
Frame#	Time	RHip			RKnee			RAnkle			RBigToe			RSmallToe			RHeel			LHip			LKnee			LAnkle			LBigToe			LSmallToe			LHeel			Neck			Head			Nose			RShoulder			RElbow			RWrist			RThumb			RIndex			RPinky			LShoulder			LElbow			LWrist			LThumb			LIndex			LPinky			
		X1	Y1	Z1	X2	Y2	Z2	X3	Y3	Z3	X4	Y4	Z4	X5	Y5	Z5	X6	Y6	Z6	X7	Y7	Z7	X8	Y8	Z8	X9	Y9	Z9	X10	Y10	Z10	X11	Y11	Z11	X12	Y12	Z12	X13	Y13	Z13	X14	Y14	Z14	X15	Y15	Z15	X16	Y16	Z16	X17	Y17	Z17	X18	Y18	Z18	X19	Y19	Z19	X20	Y20	Z20	X21	Y21	Z21	X22	Y22	Z22	X23	Y23	Z23	X24	Y24	Z24	X25	Y25	Z25	X26	Y26	Z26	X27	Y27	Z27	
46	0.7666666666666667	0.2792589211124018	0.534591099388959	0.5019118017622985	0.24926732198305981	0.550922100878193	0.9264467995902522	0.22621898495703927	0.5702920575908244	1.3127305106314735	0.2554206424476873	0.4342782124189007	1.3381530575676033	0.30913116903715043	0.4779531758632834	1.336418161840601	0.18156644861708024	0.6647006891623806	1.3919456184134522	0.10005825511445096	0.4871197157899759	0.5091761962860866	0.052720679060249916	0.5154748332202267	0.9252399451150839	0.032105450004168125	0.5593972841680351	1.3306135837969575	0.10697251773151384	0.3734019971828703	1.3059620750282286	0.03816675020024952	0.4256921485219732	1.3279302012336656	0.03459922755608297	0.5817656548511558	1.3740376744417815	0.21771073694281307	0.5142400133532654	-0.012633749059914294	0.2511982330103428	0.473013042466207	-0.2583944545644413	0.2584338825061667	0.42713843787463374	-0.1327066363709249	0.364002364949983	0.5442518538553338	0.07474785777408649	0.35454598989126357	0.5159837161501551	0.3162545375612774	0.31235103415152	0.32828896170263044	0.4581459936463041	0.26632244530850097	0.27130997892102243	0.5389649728060971	0.2283891522710148	0.320344504303545	0.5790772858131508	0.2298408600196589	0.3634057782241629	0.5906044349033325	0.0681082239567307	0.4734777886744283	0.04999552061866573	0.06609906451291407	0.4135779133959049	0.28803348165024256	0.1885115850879669	0.3051818597403514	0.45614626008457315	0.27989195209697226	0.27518435814230224	0.5066681630741041	0.2498507045145923	0.2902485982697221	0.5445857263598043	0.21957006534158402	0.2767003181607562	0.5657754132414975
47	0.7833333333333333	0.27887808274083586	0.5339452989626805	0.49982222927652553	0.24978060944599517	0.5506593111578045	0.924955197970628	0.22621447995226648	0.5702584343711363	1.3126649735152411	0.25773724149641525	0.43285442193510504	1.3361509513878664	0.3125834322198913	0.47520508462626654	1.3345748245415527	0.18154980537864362	0.6643932686042999	1.38961291975932	0.10045869426864869	0.48705002688996657	0.5073595818405523	0.052910378420521514	0.5154877649861574	0.9259541734102821	0.0321156658067568	0.5593059428230913	1.3305009445307376	0.10700277279165522	0.3734356433459436	1.3059588205121306	0.0382192737494217	0.425721753283119	1.3277278171620936	0.03463066871916404	0.5816404025525819	1.373987501170625	0.21747742179103718	0.514375205960877	-0.012111030557731236	0.2512328234279232	0.4726415959314515	-0.256243532541736	0.26043718118656967	0.42452483495647003	-0.13247896358867858	0.3617278780719039	0.5472056358697378	0.0765549525095044	0.3545197363304158	0.5159948181786039	0.3162297387735408	0.3123709173030874	0.3282336698740813	0.45811518750835223	0.2650446404308692	0.2717538549474782	0.5374405561763552	0.22867478895521953	0.3201154127241727	0.5788867309166718	0.22992896169416865	0.3609900575484355	0.5895520620132902	0.06813490699012847	0.473281571098199	0.0500572650934005	0.06611332954116692	0.41350793149579435	0.28821633859621587	0.18850620686048528	0.30521405255505135	0.45621819387166385	0.2806651165969668	0.2747408219497443	0.5058216478747384	0.2501576864734628	0.2870359313611035	0.5437329013929635	0.22024924909978905	0.2771486325851372	0.564993205131389
48	0.8	0.27803639111020634	0.5330004514749043	0.49847433629866555	0.2502865940985109	0.5505120555630906	0.9236166211272032	0.2262108321817915	0.5702229527120695	1.3126002225759255	0.26102986124382654	0.432283728709872	1.3329971613233618	0.31740417556863376	0.4715523063693046	1.3312512514546886	0.1812571478989181	0.6668781591017036	1.388119713496284	0.10084780508900225	0.48693144903682894	0.5056732223143579	0.05312994465662781	0.5150789986839819	0.9272805828600179	0.03181637640827217	0.5589029169565922	1.3303460698614693	0.10702016078729044	0.3734067281758049	1.3059047943153694	0.0380400954856074	0.4257093292416275	1.3283269200893868	0.03464626657564062	0.5815286491703778	1.3739571569975513	0.21745921726381914	0.5142503327691396	-0.0112465163507353	0.25122158111129533	0.4723668305448211	-0.2544594110136845	0.2631092328156843	0.42079272224088277	-0.13245561683717733	0.3588913214389059	0.5509941963297802	0.07815918474718407	0.35449462436949153	0.516001598205408	0.31595731532416454	0.3124040911049035	0.3281496266285502	0.45808499761722066	0.262362170907205	0.27350794480918905	0.535882161126685	0.22908610806400354	0.31990198760629984	0.5785979010315421	0.23014994942100186	0.3556486142700106	0.5881080838525857	0.0681814305718776	0.47300793423114695	0.05008752573453064	0.06706967295439539	0.412240555105478	0.2879889645473574	0.18841695055054977	0.30533613615730193	0.4562322021333894	0.2817170428367111	0.27441191786931085	0.5063005499769934	0.2505131253732732	0.28288394836122677	0.542642341226696	0.22119854455184015	0.27780138941370086	0.5639114597320207
49	0.8166666666666667	0.2772506919780662	0.5322054296206845	0.49791135608546744	0.2505546337277295	0.5504418415380323	0.9224935567061481	0.22621377834599482	0.5701940265385009	1.3125600024469763	0.2635319519721574	0.43199549978084806	1.3296985679369022	0.32122734483149473	0.4686801121178196	1.3282177306858545	0.18093492943670106	0.6690862546125722	1.3885176284667777	0.10106098061335055	0.48678573676339887	0.5038958727302882	0.05328086656779082	0.514666760204107	0.9283347127364298	0.031022527973425258	0.5580762664478357	1.330127538121543	0.1070431849085087	0.37334229579988704	1.3058270455679346	0.03769114489347376	0.42564210285907705	1.329520643332418	0.034632629518201376	0.5814879023891035	1.3740113146369206	0.21833294169962425	0.5130033650676623	-0.010601944626823546	0.2511242424286653	0.4723806807984431	-0.25408191349564746	0.26516882776706274	0.41781056842191644	-0.1325896732686669	0.3567918557348621	0.5538701464554745	0.07899635421397384	0.35449494265834747	0.5159923937465871	0.3154537889707898	0.3124437532179819	0.3280659654009628	0.45805807874399607	0.25891078712052495	0.27629103284242645	0.5361236049157961	0.22939872853156573	0.3199571058956109	0.5783930244682297	0.2304719876052042	0.3503890875835629	0.5869381850710598	0.06818705639669959	0.4730780516475227	0.050070407395244515	0.06951213331788852	0.40915257683673545	0.28680646203735277	0.18825394904734147	0.3054248459452121	0.45586348551121014	0.2821930630335975	0.2743584785498207	0.5073089477284412	0.2507610328793992	0.27982052338811936	0.5418326280802069	0.22203955572067394	0.2783279652807807	0.5629402221391461
50	0.8333333333333334	0.2768727879690894	0.5316235632459261	0.49747360114372097	0.25049782925046976	0.5504199295948573	0.9216102868674027	0.2262273786047666	0.570178565525421	1.312548595970351	0.2644654177542928	0.43183605544301795	1.3279301004137982	0.3226295735504343	0.4677531879808181	1.327044703863507	0.18077420726583596	0.6689577268254815	1.3897038676994566	0.10103868712957567	0.48670300797756705	0.5025487160835633	0.05330105747764674	0.5144916216598161	0.9288175911546782	0.029948948908697516	0.5570378268344959	1.3298960349459323	0.10706796245915476	0.37326189970005874	1.305777926126061	0.03739732992358364	0.425549188682436	1.3305335002434364	0.03458109413979288	0.5815316917266136	1.374148356304998	0.22059722212310734	0.5099721112321931	-0.010940065653398454	0.25096858464201555	0.4726551969687367	-0.2549235326334098	0.2660176539195617	0.4164878080535106	-0.13252512734174815	0.35599191028295696	0.5550104857564276	0.07916959660223087	0.35452923226839045	0.515940843803889	0.3150498150367845	0.31248101819303326	0.32802234198629987	0.4580376093071009	0.2560254214658024	0.27882340443075637	0.5381717247545306	0.22953959329715917	0.32016730188398623	0.578338816273482	0.23080991297350179	0.34760480936488003	0.5866764567790416	0.06803248216490959	0.47440113315638244	0.04989915834367105	0.072798255205505	0.40506078058959494	0.28441248143862774	0.18828758622841604	0.3050548005491882	0.45475006618188635	0.28119608402088797	0.2744750352780577	0.5078671418370757	0.25083649045319273	0.27873639804116374	0.5415337083630362	0.2225175082323614	0.27860525411820214	0.5623662921208239
